<svg width="512" height="512" viewBox="0 0 512 512" fill="none" xmlns="http://www.w3.org/2000/svg">
<g filter="url(#filter0_i_9_2)">
<ellipse cx="256" cy="256" rx="252" ry="252" transform="rotate(90 256 256)" fill="#FFFBEB"/>
</g>
<path d="M233.545 404.551C216.973 404.551 201.964 400.29 188.517 391.767C175.165 383.15 164.559 370.508 156.699 353.841C148.934 337.08 145.051 316.53 145.051 292.193C145.051 267.193 149.076 246.407 157.125 229.835C165.174 213.169 175.875 200.716 189.227 192.477C202.674 184.144 217.4 179.977 233.403 179.977C245.619 179.977 255.799 182.061 263.943 186.227C272.182 190.299 278.811 195.413 283.83 201.568C288.943 207.629 292.826 213.595 295.477 219.466H297.324V110.091H357.693V401H298.034V366.057H295.477C292.636 372.117 288.612 378.131 283.403 384.097C278.29 389.968 271.614 394.845 263.375 398.727C255.231 402.61 245.288 404.551 233.545 404.551ZM252.722 356.398C262.475 356.398 270.714 353.746 277.438 348.443C284.256 343.045 289.464 335.517 293.062 325.858C296.756 316.199 298.602 304.883 298.602 291.909C298.602 278.936 296.803 267.667 293.205 258.102C289.606 248.538 284.398 241.152 277.58 235.943C270.761 230.735 262.475 228.131 252.722 228.131C242.778 228.131 234.398 230.83 227.58 236.227C220.761 241.625 215.6 249.106 212.097 258.67C208.593 268.235 206.841 279.314 206.841 291.909C206.841 304.598 208.593 315.82 212.097 325.574C215.695 335.233 220.856 342.809 227.58 348.301C234.398 353.699 242.778 356.398 252.722 356.398Z" fill="#78350F"/>
<defs>
<filter id="filter0_i_9_2" x="4.00003" y="3.99999" width="504" height="504" filterUnits="userSpaceOnUse" color-interpolation-filters="sRGB">
<feFlood flood-opacity="0" result="BackgroundImageFix"/>
<feBlend mode="normal" in="SourceGraphic" in2="BackgroundImageFix" result="shape"/>
<feColorMatrix in="SourceAlpha" type="matrix" values="0 0 0 0 0 0 0 0 0 0 0 0 0 0 0 0 0 0 127 0" result="hardAlpha"/>
<feMorphology radius="8" operator="erode" in="SourceAlpha" result="effect1_innerShadow_9_2"/>
<feOffset/>
<feGaussianBlur stdDeviation="4"/>
<feComposite in2="hardAlpha" operator="arithmetic" k2="-1" k3="1"/>
<feColorMatrix type="matrix" values="0 0 0 0 0 0 0 0 0 0 0 0 0 0 0 0 0 0 0.04 0"/>
<feBlend mode="normal" in2="shape" result="effect1_innerShadow_9_2"/>
</filter>
</defs>
</svg>
