<svg width="160" height="52" viewBox="0 0 160 52" fill="none" xmlns="http://www.w3.org/2000/svg">
<g clip-path="url(#clip0_11_2)">
<mask id="path-1-outside-1_11_2" maskUnits="userSpaceOnUse" x="1" y="0" width="158" height="53" fill="black">
<rect fill="white" x="1" width="158" height="53"/>
<path d="M15.8182 51.4545C13.3333 51.4545 11.0455 50.803 8.95455 49.5C6.87879 48.197 5.21212 46.2197 3.95455 43.5682C2.71212 40.9167 2.09091 37.5758 2.09091 33.5455C2.09091 29.3333 2.74242 25.9091 4.04545 23.2727C5.36364 20.6364 7.06061 18.7045 9.13636 17.4773C11.2273 16.25 13.4242 15.6364 15.7273 15.6364C17.4545 15.6364 18.9697 15.9394 20.2727 16.5455C21.5758 17.1364 22.6667 17.9318 23.5455 18.9318C24.4242 19.9167 25.0909 21 25.5455 22.1818H25.7273V4.45454H38.2727V51H25.8182V45.2727H25.5455C25.0606 46.4545 24.3636 47.5152 23.4545 48.4545C22.5606 49.3788 21.4697 50.1136 20.1818 50.6591C18.9091 51.1894 17.4545 51.4545 15.8182 51.4545ZM20.4545 41.8182C21.6061 41.8182 22.5909 41.4848 23.4091 40.8182C24.2424 40.1364 24.8788 39.1818 25.3182 37.9545C25.7727 36.7121 26 35.2424 26 33.5455C26 31.8182 25.7727 30.3409 25.3182 29.1136C24.8788 27.8712 24.2424 26.9242 23.4091 26.2727C22.5909 25.6061 21.6061 25.2727 20.4545 25.2727C19.303 25.2727 18.3182 25.6061 17.5 26.2727C16.697 26.9242 16.0758 27.8712 15.6364 29.1136C15.2121 30.3409 15 31.8182 15 33.5455C15 35.2727 15.2121 36.7576 15.6364 38C16.0758 39.2273 16.697 40.1742 17.5 40.8409C18.3182 41.4924 19.303 41.8182 20.4545 41.8182ZM61.25 51.6364C57.4621 51.6364 54.2197 50.8864 51.5227 49.3864C48.8258 47.8712 46.7576 45.7652 45.3182 43.0682C43.8788 40.3561 43.1591 37.2121 43.1591 33.6364C43.1591 30.0606 43.8788 26.9242 45.3182 24.2273C46.7576 21.5152 48.8258 19.4091 51.5227 17.9091C54.2197 16.3939 57.4621 15.6364 61.25 15.6364C65.0379 15.6364 68.2803 16.3939 70.9773 17.9091C73.6742 19.4091 75.7424 21.5152 77.1818 24.2273C78.6212 26.9242 79.3409 30.0606 79.3409 33.6364C79.3409 37.2121 78.6212 40.3561 77.1818 43.0682C75.7424 45.7652 73.6742 47.8712 70.9773 49.3864C68.2803 50.8864 65.0379 51.6364 61.25 51.6364ZM61.3409 42.3636C62.4015 42.3636 63.3182 42.0076 64.0909 41.2955C64.8636 40.5833 65.4621 39.5682 65.8864 38.25C66.3106 36.9318 66.5227 35.3636 66.5227 33.5455C66.5227 31.7121 66.3106 30.1439 65.8864 28.8409C65.4621 27.5227 64.8636 26.5076 64.0909 25.7955C63.3182 25.0833 62.4015 24.7273 61.3409 24.7273C60.2197 24.7273 59.2576 25.0833 58.4545 25.7955C57.6515 26.5076 57.0379 27.5227 56.6136 28.8409C56.1894 30.1439 55.9773 31.7121 55.9773 33.5455C55.9773 35.3636 56.1894 36.9318 56.6136 38.25C57.0379 39.5682 57.6515 40.5833 58.4545 41.2955C59.2576 42.0076 60.2197 42.3636 61.3409 42.3636ZM84.4318 51V16.0909H96.3409V22.7273H96.7045C97.4318 20.5455 98.6742 18.8182 100.432 17.5455C102.189 16.2727 104.28 15.6364 106.705 15.6364C109.159 15.6364 111.273 16.2879 113.045 17.5909C114.818 18.8788 115.886 20.5909 116.25 22.7273H116.614C117.205 20.5909 118.462 18.8788 120.386 17.5909C122.311 16.2879 124.568 15.6364 127.159 15.6364C130.508 15.6364 133.22 16.7121 135.295 18.8636C137.386 21.0152 138.432 23.8788 138.432 27.4545V51H125.886V30.6364C125.886 29.1061 125.5 27.9091 124.727 27.0455C123.955 26.1667 122.917 25.7273 121.614 25.7273C120.326 25.7273 119.303 26.1667 118.545 27.0455C117.803 27.9091 117.432 29.1061 117.432 30.6364V51H105.432V30.6364C105.432 29.1061 105.045 27.9091 104.273 27.0455C103.5 26.1667 102.462 25.7273 101.159 25.7273C100.295 25.7273 99.553 25.9242 98.9318 26.3182C98.3106 26.7121 97.8258 27.2803 97.4773 28.0227C97.1439 28.75 96.9773 29.6212 96.9773 30.6364V51H84.4318ZM144.619 51V16.0909H157.165V51H144.619ZM150.892 12.4545C149.195 12.4545 147.741 11.8939 146.528 10.7727C145.316 9.65151 144.71 8.30303 144.71 6.72727C144.71 5.15151 145.316 3.80303 146.528 2.68182C147.741 1.56061 149.195 1 150.892 1C152.604 1 154.059 1.56061 155.256 2.68182C156.468 3.80303 157.074 5.15151 157.074 6.72727C157.074 8.30303 156.468 9.65151 155.256 10.7727C154.059 11.8939 152.604 12.4545 150.892 12.4545Z"/>
</mask>
<path d="M15.8182 51.4545C13.3333 51.4545 11.0455 50.803 8.95455 49.5C6.87879 48.197 5.21212 46.2197 3.95455 43.5682C2.71212 40.9167 2.09091 37.5758 2.09091 33.5455C2.09091 29.3333 2.74242 25.9091 4.04545 23.2727C5.36364 20.6364 7.06061 18.7045 9.13636 17.4773C11.2273 16.25 13.4242 15.6364 15.7273 15.6364C17.4545 15.6364 18.9697 15.9394 20.2727 16.5455C21.5758 17.1364 22.6667 17.9318 23.5455 18.9318C24.4242 19.9167 25.0909 21 25.5455 22.1818H25.7273V4.45454H38.2727V51H25.8182V45.2727H25.5455C25.0606 46.4545 24.3636 47.5152 23.4545 48.4545C22.5606 49.3788 21.4697 50.1136 20.1818 50.6591C18.9091 51.1894 17.4545 51.4545 15.8182 51.4545ZM20.4545 41.8182C21.6061 41.8182 22.5909 41.4848 23.4091 40.8182C24.2424 40.1364 24.8788 39.1818 25.3182 37.9545C25.7727 36.7121 26 35.2424 26 33.5455C26 31.8182 25.7727 30.3409 25.3182 29.1136C24.8788 27.8712 24.2424 26.9242 23.4091 26.2727C22.5909 25.6061 21.6061 25.2727 20.4545 25.2727C19.303 25.2727 18.3182 25.6061 17.5 26.2727C16.697 26.9242 16.0758 27.8712 15.6364 29.1136C15.2121 30.3409 15 31.8182 15 33.5455C15 35.2727 15.2121 36.7576 15.6364 38C16.0758 39.2273 16.697 40.1742 17.5 40.8409C18.3182 41.4924 19.303 41.8182 20.4545 41.8182ZM61.25 51.6364C57.4621 51.6364 54.2197 50.8864 51.5227 49.3864C48.8258 47.8712 46.7576 45.7652 45.3182 43.0682C43.8788 40.3561 43.1591 37.2121 43.1591 33.6364C43.1591 30.0606 43.8788 26.9242 45.3182 24.2273C46.7576 21.5152 48.8258 19.4091 51.5227 17.9091C54.2197 16.3939 57.4621 15.6364 61.25 15.6364C65.0379 15.6364 68.2803 16.3939 70.9773 17.9091C73.6742 19.4091 75.7424 21.5152 77.1818 24.2273C78.6212 26.9242 79.3409 30.0606 79.3409 33.6364C79.3409 37.2121 78.6212 40.3561 77.1818 43.0682C75.7424 45.7652 73.6742 47.8712 70.9773 49.3864C68.2803 50.8864 65.0379 51.6364 61.25 51.6364ZM61.3409 42.3636C62.4015 42.3636 63.3182 42.0076 64.0909 41.2955C64.8636 40.5833 65.4621 39.5682 65.8864 38.25C66.3106 36.9318 66.5227 35.3636 66.5227 33.5455C66.5227 31.7121 66.3106 30.1439 65.8864 28.8409C65.4621 27.5227 64.8636 26.5076 64.0909 25.7955C63.3182 25.0833 62.4015 24.7273 61.3409 24.7273C60.2197 24.7273 59.2576 25.0833 58.4545 25.7955C57.6515 26.5076 57.0379 27.5227 56.6136 28.8409C56.1894 30.1439 55.9773 31.7121 55.9773 33.5455C55.9773 35.3636 56.1894 36.9318 56.6136 38.25C57.0379 39.5682 57.6515 40.5833 58.4545 41.2955C59.2576 42.0076 60.2197 42.3636 61.3409 42.3636ZM84.4318 51V16.0909H96.3409V22.7273H96.7045C97.4318 20.5455 98.6742 18.8182 100.432 17.5455C102.189 16.2727 104.28 15.6364 106.705 15.6364C109.159 15.6364 111.273 16.2879 113.045 17.5909C114.818 18.8788 115.886 20.5909 116.25 22.7273H116.614C117.205 20.5909 118.462 18.8788 120.386 17.5909C122.311 16.2879 124.568 15.6364 127.159 15.6364C130.508 15.6364 133.22 16.7121 135.295 18.8636C137.386 21.0152 138.432 23.8788 138.432 27.4545V51H125.886V30.6364C125.886 29.1061 125.5 27.9091 124.727 27.0455C123.955 26.1667 122.917 25.7273 121.614 25.7273C120.326 25.7273 119.303 26.1667 118.545 27.0455C117.803 27.9091 117.432 29.1061 117.432 30.6364V51H105.432V30.6364C105.432 29.1061 105.045 27.9091 104.273 27.0455C103.5 26.1667 102.462 25.7273 101.159 25.7273C100.295 25.7273 99.553 25.9242 98.9318 26.3182C98.3106 26.7121 97.8258 27.2803 97.4773 28.0227C97.1439 28.75 96.9773 29.6212 96.9773 30.6364V51H84.4318ZM144.619 51V16.0909H157.165V51H144.619ZM150.892 12.4545C149.195 12.4545 147.741 11.8939 146.528 10.7727C145.316 9.65151 144.71 8.30303 144.71 6.72727C144.71 5.15151 145.316 3.80303 146.528 2.68182C147.741 1.56061 149.195 1 150.892 1C152.604 1 154.059 1.56061 155.256 2.68182C156.468 3.80303 157.074 5.15151 157.074 6.72727C157.074 8.30303 156.468 9.65151 155.256 10.7727C154.059 11.8939 152.604 12.4545 150.892 12.4545Z" fill="#78350F"/>
<path d="M8.95455 49.5L8.42288 50.347L8.42565 50.3487L8.95455 49.5ZM3.95455 43.5682L3.04901 43.9925L3.05102 43.9967L3.95455 43.5682ZM4.04545 23.2727L3.15102 22.8255L3.14898 22.8296L4.04545 23.2727ZM9.13636 17.4773L8.63016 16.6149L8.62742 16.6165L9.13636 17.4773ZM20.2727 16.5455L19.851 17.4522L19.8597 17.4562L20.2727 16.5455ZM23.5455 18.9318L22.7943 19.5919L22.7993 19.5976L23.5455 18.9318ZM25.5455 22.1818L24.6121 22.5408L24.8587 23.1818H25.5455V22.1818ZM25.7273 22.1818V23.1818H26.7273V22.1818H25.7273ZM25.7273 4.45454V3.45454H24.7273V4.45454H25.7273ZM38.2727 4.45454H39.2727V3.45454H38.2727V4.45454ZM38.2727 51V52H39.2727V51H38.2727ZM25.8182 51H24.8182V52H25.8182V51ZM25.8182 45.2727H26.8182V44.2727H25.8182V45.2727ZM25.5455 45.2727V44.2727H24.8748L24.6203 44.8932L25.5455 45.2727ZM23.4545 48.4545L22.7359 47.7591L22.7358 47.7593L23.4545 48.4545ZM20.1818 50.6591L20.5664 51.5822L20.5718 51.5799L20.1818 50.6591ZM23.4091 40.8182L24.0408 41.5934L24.0423 41.5921L23.4091 40.8182ZM25.3182 37.9545L24.379 37.611L24.3767 37.6175L25.3182 37.9545ZM25.3182 29.1136L24.3754 29.4471L24.3779 29.454L24.3804 29.4609L25.3182 29.1136ZM23.4091 26.2727L22.7774 27.048L22.7852 27.0543L22.7932 27.0605L23.4091 26.2727ZM17.5 26.2727L18.13 27.0493L18.1317 27.048L17.5 26.2727ZM15.6364 29.1136L14.6936 28.7802L14.6912 28.7869L15.6364 29.1136ZM15.6364 38L14.69 38.3231L14.6924 38.3301L14.6949 38.3371L15.6364 38ZM17.5 40.8409L16.8612 41.6103L16.8691 41.6168L16.8771 41.6232L17.5 40.8409ZM15.8182 50.4545C13.5186 50.4545 11.4142 49.8546 9.48344 48.6513L8.42565 50.3487C10.6767 51.7515 13.1481 52.4545 15.8182 52.4545V50.4545ZM9.48621 48.653C7.60113 47.4697 6.05034 45.6535 4.85807 43.1397L3.05102 43.9967C4.37391 46.7859 6.15645 48.9242 8.42288 50.347L9.48621 48.653ZM4.86007 43.1439C3.69868 40.6653 3.09091 37.4811 3.09091 33.5455H1.09091C1.09091 37.6704 1.72557 41.168 3.04902 43.9925L4.86007 43.1439ZM3.09091 33.5455C3.09091 29.4252 3.72994 26.168 4.94193 23.7158L3.14898 22.8296C1.75491 25.6502 1.09091 29.2415 1.09091 33.5455H3.09091ZM4.93988 23.7199C6.19126 21.2172 7.76865 19.4476 9.6453 18.3381L8.62742 16.6165C6.35256 17.9615 4.53601 20.0555 3.15103 22.8255L4.93988 23.7199ZM9.64256 18.3397C11.5884 17.1976 13.6117 16.6364 15.7273 16.6364V14.6364C13.2367 14.6364 10.8661 15.3024 8.63016 16.6149L9.64256 18.3397ZM15.7273 16.6364C17.3378 16.6364 18.704 16.9187 19.851 17.4522L20.6945 15.6387C19.2354 14.9601 17.5713 14.6364 15.7273 14.6364V16.6364ZM19.8597 17.4562C21.0433 17.9929 22.016 18.7063 22.7943 19.5919L24.2966 18.2717C23.3173 17.1573 22.1082 16.2798 20.6857 15.6347L19.8597 17.4562ZM22.7993 19.5976C23.6011 20.4962 24.2028 21.4765 24.6121 22.5408L26.4788 21.8228C25.9791 20.5235 25.2473 19.3371 24.2916 18.266L22.7993 19.5976ZM25.5455 23.1818H25.7273V21.1818H25.5455V23.1818ZM26.7273 22.1818V4.45454H24.7273V22.1818H26.7273ZM25.7273 5.45454H38.2727V3.45454H25.7273V5.45454ZM37.2727 4.45454V51H39.2727V4.45454H37.2727ZM38.2727 50H25.8182V52H38.2727V50ZM26.8182 51V45.2727H24.8182V51H26.8182ZM25.8182 44.2727H25.5455V46.2727H25.8182V44.2727ZM24.6203 44.8932C24.1848 45.9548 23.5589 46.9088 22.7359 47.7591L24.1731 49.15C25.1684 48.1215 25.9365 46.9543 26.4706 45.6523L24.6203 44.8932ZM22.7358 47.7593C21.9431 48.5789 20.967 49.2405 19.7918 49.7383L20.5718 51.5799C21.9724 50.9867 23.1781 50.1787 24.1733 49.1498L22.7358 47.7593ZM19.7972 49.736C18.6669 50.207 17.3467 50.4545 15.8182 50.4545V52.4545C17.5624 52.4545 19.1513 52.1718 20.5664 51.5822L19.7972 49.736ZM20.4545 42.8182C21.8138 42.8182 23.0275 42.419 24.0408 41.5934L22.7774 40.0429C22.1543 40.5507 21.3983 40.8182 20.4545 40.8182V42.8182ZM24.0423 41.5921C25.0431 40.7733 25.772 39.6537 26.2597 38.2916L24.3767 37.6175C23.9856 38.7099 23.4417 39.4994 22.7759 40.0442L24.0423 41.5921ZM26.2573 38.2981C26.7617 36.9195 27 35.3281 27 33.5455H25C25 35.1568 24.7838 36.5048 24.3791 37.611L26.2573 38.2981ZM27 33.5455C27 31.7354 26.7625 30.134 26.2559 28.7663L24.3804 29.4609C24.783 30.5478 25 31.901 25 33.5455H27ZM26.261 28.7802C25.7737 27.4023 25.0413 26.2795 24.025 25.4849L22.7932 27.0605C23.4435 27.569 23.9839 28.3401 24.3754 29.4471L26.261 28.7802ZM24.0408 25.4975C23.0275 24.6719 21.8138 24.2727 20.4545 24.2727V26.2727C21.3983 26.2727 22.1543 26.5402 22.7774 27.048L24.0408 25.4975ZM20.4545 24.2727C19.0953 24.2727 17.8816 24.6719 16.8683 25.4975L18.1317 27.048C18.7548 26.5402 19.5108 26.2727 20.4545 26.2727V24.2727ZM16.87 25.4962C15.8895 26.2916 15.1778 27.4111 14.6936 28.7802L16.5791 29.4471C16.9737 28.3313 17.5044 27.5569 18.13 27.0493L16.87 25.4962ZM14.6912 28.7869C14.2209 30.1475 14 31.7414 14 33.5455H16C16 31.8949 16.2033 30.5343 16.5815 29.4403L14.6912 28.7869ZM14 33.5455C14 35.35 14.221 36.9497 14.69 38.3231L16.5827 37.6769C16.2032 36.5654 16 35.1955 16 33.5455H14ZM14.6949 38.3371C15.1798 39.6914 15.89 40.804 16.8612 41.6103L18.1388 40.0715C17.5039 39.5445 16.9718 38.7632 16.5778 37.6629L14.6949 38.3371ZM16.8771 41.6232C17.8904 42.4301 19.101 42.8182 20.4545 42.8182V40.8182C19.505 40.8182 18.746 40.5548 18.1229 40.0586L16.8771 41.6232ZM51.5227 49.3864L51.0329 50.2582L51.0367 50.2603L51.5227 49.3864ZM45.3182 43.0682L44.4349 43.537L44.436 43.539L45.3182 43.0682ZM45.3182 24.2273L46.2004 24.6981L46.2015 24.6961L45.3182 24.2273ZM51.5227 17.9091L52.0088 18.783L52.0125 18.7809L51.5227 17.9091ZM70.9773 17.9091L70.4875 18.7809L70.4912 18.783L70.9773 17.9091ZM77.1818 24.2273L76.2985 24.6961L76.2996 24.6981L77.1818 24.2273ZM77.1818 43.0682L78.064 43.539L78.0651 43.537L77.1818 43.0682ZM70.9773 49.3864L71.4633 50.2603L71.4671 50.2582L70.9773 49.3864ZM64.0909 41.2955L64.7686 42.0308L64.0909 41.2955ZM65.8864 38.25L66.8383 38.5564L65.8864 38.25ZM65.8864 28.8409L64.9344 29.1473L64.9355 29.1505L65.8864 28.8409ZM64.0909 25.7955L64.7686 25.0601L64.0909 25.7955ZM56.6136 28.8409L57.5645 29.1505L57.5656 29.1473L56.6136 28.8409ZM56.6136 38.25L57.5656 37.9436L56.6136 38.25ZM61.25 50.6364C57.5939 50.6364 54.5269 49.9129 52.0088 48.5124L51.0367 50.2603C53.9125 51.8598 57.3303 52.6364 61.25 52.6364V50.6364ZM52.0125 48.5145C49.4798 47.0917 47.5488 45.1238 46.2004 42.5973L44.436 43.539C45.9664 46.4065 48.1717 48.6507 51.0329 50.2582L52.0125 48.5145ZM46.2015 42.5994C44.8504 40.0537 44.1591 37.0757 44.1591 33.6364H42.1591C42.1591 37.3486 42.9071 40.6584 44.4349 43.537L46.2015 42.5994ZM44.1591 33.6364C44.1591 30.1969 44.8505 27.2274 46.2004 24.6981L44.436 23.7564C42.9071 26.6211 42.1591 29.9243 42.1591 33.6364H44.1591ZM46.2015 24.6961C47.5499 22.1554 49.4797 20.1897 52.0088 18.783L51.0367 17.0352C48.1719 18.6285 45.9653 20.8749 44.4349 23.7585L46.2015 24.6961ZM52.0125 18.7809C54.5298 17.3667 57.5955 16.6364 61.25 16.6364V14.6364C57.3288 14.6364 53.9096 15.4212 51.0329 17.0373L52.0125 18.7809ZM61.25 16.6364C64.9045 16.6364 67.9702 17.3667 70.4875 18.7809L71.4671 17.0373C68.5904 15.4212 65.1712 14.6364 61.25 14.6364V16.6364ZM70.4912 18.783C73.0203 20.1897 74.9501 22.1554 76.2985 24.6961L78.0651 23.7585C76.5347 20.8749 74.3281 18.6285 71.4633 17.0352L70.4912 18.783ZM76.2996 24.6981C77.6495 27.2274 78.3409 30.1969 78.3409 33.6364H80.3409C80.3409 29.9243 79.5929 26.6211 78.064 23.7564L76.2996 24.6981ZM78.3409 33.6364C78.3409 37.0757 77.6496 40.0537 76.2985 42.5994L78.0651 43.537C79.5929 40.6584 80.3409 37.3486 80.3409 33.6364H78.3409ZM76.2996 42.5973C74.9512 45.1238 73.0202 47.0917 70.4875 48.5145L71.4671 50.2582C74.3283 48.6507 76.5337 46.4065 78.064 43.539L76.2996 42.5973ZM70.4912 48.5124C67.9731 49.9129 64.9061 50.6364 61.25 50.6364V52.6364C65.1697 52.6364 68.5875 51.8598 71.4633 50.2603L70.4912 48.5124ZM61.3409 43.3636C62.65 43.3636 63.8093 42.9149 64.7686 42.0308L63.4132 40.5601C62.8271 41.1003 62.153 41.3636 61.3409 41.3636V43.3636ZM64.7686 42.0308C65.7023 41.1704 66.3774 39.9882 66.8383 38.5564L64.9344 37.9436C64.5468 39.1481 64.025 39.9963 63.4132 40.5601L64.7686 42.0308ZM66.8383 38.5564C67.3026 37.1137 67.5227 35.437 67.5227 33.5455H65.5227C65.5227 35.2902 65.3186 36.7499 64.9344 37.9436L66.8383 38.5564ZM67.5227 33.5455C67.5227 31.6402 67.3029 29.9616 66.8372 28.5313L64.9355 29.1505C65.3183 30.3262 65.5227 31.7841 65.5227 33.5455H67.5227ZM66.8383 28.5345C66.3774 27.1027 65.7023 25.9206 64.7686 25.0601L63.4132 26.5308C64.025 27.0946 64.5468 27.9428 64.9344 29.1473L66.8383 28.5345ZM64.7686 25.0601C63.8093 24.1761 62.65 23.7273 61.3409 23.7273V25.7273C62.153 25.7273 62.8271 25.9906 63.4132 26.5308L64.7686 25.0601ZM61.3409 23.7273C59.9871 23.7273 58.7858 24.1652 57.7911 25.0473L59.118 26.5436C59.7294 26.0015 60.4523 25.7273 61.3409 25.7273V23.7273ZM57.7911 25.0473C56.8205 25.9079 56.1252 27.0944 55.6617 28.5345L57.5656 29.1473C57.9505 27.9511 58.4825 27.1072 59.118 26.5436L57.7911 25.0473ZM55.6628 28.5313C55.1971 29.9616 54.9773 31.6402 54.9773 33.5455H56.9773C56.9773 31.7841 57.1817 30.3262 57.5645 29.1505L55.6628 28.5313ZM54.9773 33.5455C54.9773 35.437 55.1974 37.1137 55.6617 38.5564L57.5656 37.9436C57.1814 36.7499 56.9773 35.2902 56.9773 33.5455H54.9773ZM55.6617 38.5564C56.1252 39.9965 56.8205 41.183 57.7911 42.0436L59.118 40.5473C58.4825 39.9837 57.9505 39.1398 57.5656 37.9436L55.6617 38.5564ZM57.7911 42.0436C58.7858 42.9257 59.9871 43.3636 61.3409 43.3636V41.3636C60.4523 41.3636 59.7294 41.0894 59.118 40.5473L57.7911 42.0436ZM84.4318 51H83.4318V52H84.4318V51ZM84.4318 16.0909V15.0909H83.4318V16.0909H84.4318ZM96.3409 16.0909H97.3409V15.0909H96.3409V16.0909ZM96.3409 22.7273H95.3409V23.7273H96.3409V22.7273ZM96.7045 22.7273V23.7273H97.4253L97.6532 23.0435L96.7045 22.7273ZM100.432 17.5455L99.8453 16.7355L100.432 17.5455ZM113.045 17.5909L112.453 18.3967L112.458 18.3999L113.045 17.5909ZM116.25 22.7273L115.264 22.8951L115.406 23.7273H116.25V22.7273ZM116.614 22.7273V23.7273H117.375L117.577 22.9939L116.614 22.7273ZM120.386 17.5909L120.943 18.422L120.947 18.4189L120.386 17.5909ZM135.295 18.8636L134.576 19.558L134.578 19.5606L135.295 18.8636ZM138.432 51V52H139.432V51H138.432ZM125.886 51H124.886V52H125.886V51ZM124.727 27.0455L123.976 27.7058L123.982 27.7122L124.727 27.0455ZM118.545 27.0455L117.788 26.3925L117.787 26.3936L118.545 27.0455ZM117.432 51V52H118.432V51H117.432ZM105.432 51H104.432V52H105.432V51ZM104.273 27.0455L103.522 27.7058L103.527 27.7122L104.273 27.0455ZM98.9318 26.3182L99.4674 27.1627L98.9318 26.3182ZM97.4773 28.0227L96.572 27.5978L96.5682 27.6061L97.4773 28.0227ZM96.9773 51V52H97.9773V51H96.9773ZM85.4318 51V16.0909H83.4318V51H85.4318ZM84.4318 17.0909H96.3409V15.0909H84.4318V17.0909ZM95.3409 16.0909V22.7273H97.3409V16.0909H95.3409ZM96.3409 23.7273H96.7045V21.7273H96.3409V23.7273ZM97.6532 23.0435C98.3186 21.0475 99.4406 19.4979 101.018 18.3554L99.8453 16.7355C97.9079 18.1385 96.5451 20.0434 95.7559 22.411L97.6532 23.0435ZM101.018 18.3554C102.586 17.2205 104.465 16.6364 106.705 16.6364V14.6364C104.095 14.6364 101.793 15.3249 99.8453 16.7355L101.018 18.3554ZM106.705 16.6364C108.972 16.6364 110.872 17.2343 112.453 18.3967L113.638 16.7852C111.674 15.3414 109.346 14.6364 106.705 14.6364V16.6364ZM112.458 18.3999C114.022 19.5362 114.945 21.0194 115.264 22.8951L117.236 22.5595C116.828 20.1624 115.615 18.2214 113.633 16.7819L112.458 18.3999ZM116.25 23.7273H116.614V21.7273H116.25V23.7273ZM117.577 22.9939C118.101 21.0994 119.208 19.5831 120.943 18.4219L119.83 16.7599C117.716 18.1745 116.308 20.0824 115.65 22.4607L117.577 22.9939ZM120.947 18.4189C122.687 17.2406 124.744 16.6364 127.159 16.6364V14.6364C124.392 14.6364 121.934 15.3351 119.826 16.7629L120.947 18.4189ZM127.159 16.6364C130.272 16.6364 132.712 17.6261 134.576 19.558L136.015 18.1693C133.727 15.7981 130.743 14.6364 127.159 14.6364V16.6364ZM134.578 19.5606C136.454 21.4904 137.432 24.0857 137.432 27.4545H139.432C139.432 23.6718 138.319 20.5399 136.013 18.1667L134.578 19.5606ZM137.432 27.4545V51H139.432V27.4545H137.432ZM138.432 50H125.886V52H138.432V50ZM126.886 51V30.6364H124.886V51H126.886ZM126.886 30.6364C126.886 28.9404 126.456 27.4778 125.473 26.3787L123.982 27.7122C124.544 28.3403 124.886 29.2717 124.886 30.6364H126.886ZM125.478 26.3851C124.493 25.2644 123.168 24.7273 121.614 24.7273V26.7273C122.666 26.7273 123.416 27.0689 123.976 27.7058L125.478 26.3851ZM121.614 24.7273C120.071 24.7273 118.758 25.2675 117.788 26.3925L119.303 27.6984C119.848 27.0658 120.581 26.7273 121.614 26.7273V24.7273ZM117.787 26.3936C116.842 27.4929 116.432 28.9497 116.432 30.6364H118.432C118.432 29.2624 118.764 28.3253 119.304 27.6973L117.787 26.3936ZM116.432 30.6364V51H118.432V30.6364H116.432ZM117.432 50H105.432V52H117.432V50ZM106.432 51V30.6364H104.432V51H106.432ZM106.432 30.6364C106.432 28.9404 106.001 27.4778 105.018 26.3787L103.527 27.7122C104.089 28.3403 104.432 29.2717 104.432 30.6364H106.432ZM105.024 26.3851C104.038 25.2644 102.713 24.7273 101.159 24.7273V26.7273C102.211 26.7273 102.962 27.0689 103.522 27.7058L105.024 26.3851ZM101.159 24.7273C100.139 24.7273 99.2038 24.9616 98.3963 25.4737L99.4674 27.1627C99.9023 26.8869 100.452 26.7273 101.159 26.7273V24.7273ZM98.3963 25.4737C97.5964 25.9809 96.9917 26.7037 96.572 27.5978L98.3825 28.4476C98.6598 27.857 99.0248 27.4433 99.4674 27.1627L98.3963 25.4737ZM96.5682 27.6061C96.1611 28.4943 95.9773 29.5148 95.9773 30.6364H97.9773C97.9773 29.7276 98.1268 29.0057 98.3863 28.4394L96.5682 27.6061ZM95.9773 30.6364V51H97.9773V30.6364H95.9773ZM96.9773 50H84.4318V52H96.9773V50ZM144.619 51H143.619V52H144.619V51ZM144.619 16.0909V15.0909H143.619V16.0909H144.619ZM157.165 16.0909H158.165V15.0909H157.165V16.0909ZM157.165 51V52H158.165V51H157.165ZM146.528 10.7727L145.849 11.5068V11.5068L146.528 10.7727ZM146.528 2.68182L145.849 1.94772V1.94772L146.528 2.68182ZM155.256 2.68182L154.572 3.41166L154.577 3.41592L155.256 2.68182ZM155.256 10.7727L154.577 10.0386L154.572 10.0429L155.256 10.7727ZM145.619 51V16.0909H143.619V51H145.619ZM144.619 17.0909H157.165V15.0909H144.619V17.0909ZM156.165 16.0909V51H158.165V16.0909H156.165ZM157.165 50H144.619V52H157.165V50ZM150.892 11.4545C149.439 11.4545 148.229 10.9837 147.207 10.0386L145.849 11.5068C147.252 12.8042 148.951 13.4545 150.892 13.4545V11.4545ZM147.207 10.0386C146.189 9.09648 145.71 8.0096 145.71 6.72727H143.71C143.71 8.59646 144.444 10.2066 145.849 11.5068L147.207 10.0386ZM145.71 6.72727C145.71 5.44495 146.189 4.35807 147.207 3.41592L145.849 1.94772C144.444 3.24799 143.71 4.85808 143.71 6.72727H145.71ZM147.207 3.41592C148.229 2.47083 149.439 2 150.892 2V0C148.951 0 147.252 0.650385 145.849 1.94772L147.207 3.41592ZM150.892 2C152.363 2 153.569 2.47225 154.572 3.41164L155.939 1.95199C154.548 0.64896 152.846 0 150.892 0V2ZM154.577 3.41592C155.595 4.35807 156.074 5.44495 156.074 6.72727H158.074C158.074 4.85808 157.34 3.24799 155.935 1.94772L154.577 3.41592ZM156.074 6.72727C156.074 8.0096 155.595 9.09648 154.577 10.0386L155.935 11.5068C157.34 10.2066 158.074 8.59646 158.074 6.72727H156.074ZM154.572 10.0429C153.569 10.9823 152.363 11.4545 150.892 11.4545V13.4545C152.846 13.4545 154.548 12.8056 155.939 11.5026L154.572 10.0429Z" fill="#FFFBEB" mask="url(#path-1-outside-1_11_2)"/>
</g>
<defs>
<clipPath id="clip0_11_2">
<rect width="160" height="52" fill="white"/>
</clipPath>
</defs>
</svg>
